<?xml version="1.0" standalone="no"?>
<!DOCTYPE svg PUBLIC "-//W3C//DTD SVG 20010904//EN"
 "http://www.w3.org/TR/2001/REC-SVG-20010904/DTD/svg10.dtd">
<svg version="1.0" xmlns="http://www.w3.org/2000/svg"
 width="199.000000pt" height="199.000000pt" viewBox="0 0 199.000000 199.000000"
 preserveAspectRatio="xMidYMid meet">
<metadata>
Created by potrace 1.11, written by Peter Selinger 2001-2013
</metadata>
<g transform="translate(0.000000,199.000000) scale(0.100000,-0.100000)"
fill="#000000" stroke="none">
<path d="M44 1947 c-27 -24 -27 -24 -29 -173 -2 -154 4 -188 33 -210 14 -11
172 -13 790 -14 l773 0 -114 -167 -115 -168 -41 -3 c-29 -2 -39 -7 -35 -15 5
-8 3 -8 -7 1 -7 6 -24 12 -37 12 -16 0 -21 -4 -16 -12 6 -10 4 -10 -7 0 -16
15 -123 17 -114 2 4 -6 11 -7 17 -4 7 4 8 2 4 -5 -6 -9 -11 -9 -23 1 -9 7 -48
13 -99 14 l-84 1 17 -21 c16 -18 15 -18 -8 2 -27 24 -76 31 -63 10 6 -10 5
-10 -7 -1 -10 8 -62 12 -157 12 -130 1 -141 -1 -136 -17 5 -16 5 -16 -6 1 -13
20 -65 25 -54 5 6 -10 4 -10 -7 0 -7 6 -32 12 -56 12 -34 0 -41 -3 -37 -15 4
-8 1 -15 -5 -15 -6 0 -10 6 -9 13 2 7 -9 13 -26 15 -21 3 -26 0 -20 -10 6 -10
5 -11 -7 -1 -9 8 -44 12 -86 12 -72 -1 -78 -5 -59 -39 7 -12 7 -13 -5 -2 -8 7
-14 18 -14 25 0 8 -21 12 -60 13 -87 2 -114 -21 -117 -99 -2 -31 0 -57 4 -57
4 0 2 -14 -3 -32 -6 -23 -5 -34 3 -39 7 -4 15 -6 18 -4 3 2 7 -6 7 -17 2 -19
1 -19 -11 -3 -12 17 -13 17 -19 -4 -3 -11 -1 -21 3 -21 5 0 5 -12 1 -27 -9
-33 -3 -66 10 -58 5 3 6 -1 3 -9 -7 -17 31 -41 48 -30 7 4 8 3 4 -4 -4 -7 -2
-12 3 -12 6 0 11 6 11 13 0 9 3 8 9 -2 12 -19 31 -5 26 19 -2 11 0 20 6 20 5
0 7 -11 5 -24 -4 -22 -2 -24 43 -22 25 1 53 6 60 11 10 5 12 4 7 -3 -10 -16 7
-15 23 1 11 9 13 9 7 0 -4 -7 -2 -13 3 -13 6 0 11 6 11 13 0 7 3 8 8 2 9 -13
163 -15 155 -2 -3 5 3 5 13 -1 15 -8 24 -7 39 6 19 16 19 16 6 0 -8 -11 -9
-18 -3 -18 6 0 16 8 22 18 11 16 11 16 6 -2 -5 -13 -2 -17 9 -12 8 3 15 2 15
-2 0 -4 -53 -83 -118 -177 l-118 -170 -122 -1 c-67 -1 -134 -5 -148 -8 -41
-11 -51 -54 -49 -206 1 -150 6 -174 38 -192 33 -19 1838 -20 1884 -2 42 17 48
42 47 209 0 148 -10 181 -53 192 -14 4 -358 7 -763 6 -406 0 -738 2 -738 3 0
1 36 56 81 121 45 65 97 142 116 171 20 28 43 53 52 53 9 1 34 2 56 3 22 1 45
5 51 8 6 4 14 5 18 1 8 -9 146 -11 141 -3 -2 4 2 7 10 7 8 0 12 -4 9 -9 -3 -4
0 -8 5 -8 6 0 11 6 11 13 0 8 2 9 8 1 8 -13 60 -13 81 0 10 7 12 6 6 -4 -5 -8
-3 -11 5 -8 7 2 14 12 16 22 1 10 5 21 9 24 3 4 4 -5 2 -19 -5 -25 -4 -26 48
-25 31 0 51 4 48 10 -3 5 -1 6 5 2 20 -12 51 -15 57 -5 4 5 11 6 18 2 18 -11
147 -11 140 0 -4 6 -1 7 8 1 19 -12 52 -12 61 1 5 6 8 5 8 -4 0 -11 3 -11 17
0 11 10 14 10 9 2 -4 -7 -2 -13 3 -13 6 0 11 6 11 13 0 9 3 8 9 -2 12 -19 31
-5 26 19 -2 11 0 20 6 20 5 0 7 -11 5 -24 -4 -21 -1 -23 39 -22 24 0 42 3 40
6 -2 3 5 6 15 6 10 0 16 -4 13 -9 -3 -5 0 -7 8 -5 8 3 13 11 11 17 -1 7 2 10
8 6 6 -3 8 -11 5 -16 -4 -5 -1 -9 4 -9 6 0 11 6 11 13 0 7 3 8 8 2 8 -11 163
-15 156 -4 -2 4 4 5 14 3 20 -6 62 30 62 53 0 9 -8 26 -17 37 -10 12 -11 15
-3 9 22 -20 25 -16 24 29 -1 28 -7 46 -20 56 -18 13 -18 14 5 7 17 -5 22 -4
16 5 -11 18 -13 51 -4 76 5 14 2 30 -8 44 -9 13 -11 20 -5 16 25 -15 21 16 -5
42 -22 22 -39 29 -76 31 -33 1 -47 -2 -42 -9 3 -6 11 -7 17 -4 7 5 8 2 4 -5
-6 -9 -12 -9 -25 3 -11 10 -36 16 -68 16 -52 0 -58 -6 -39 -40 7 -12 7 -13 -5
-2 -8 7 -14 18 -14 25 0 8 -21 13 -58 15 -44 2 -57 0 -51 -9 5 -8 3 -9 -7 -3
-8 5 -37 9 -66 9 -29 1 -54 3 -56 5 -3 3 47 80 110 173 l114 167 118 0 c112 0
119 1 141 25 21 23 23 32 24 171 1 162 -7 198 -49 214 -17 6 -361 10 -945 10
l-919 0 -27 -23z m86 -753 c0 -8 -19 -13 -24 -6 -3 5 1 9 9 9 8 0 15 -2 15 -3z
m251 -17 c-10 -9 -11 -8 -5 6 3 10 9 15 12 12 3 -3 0 -11 -7 -18z m240 0 c-10
-9 -11 -8 -5 6 3 10 9 15 12 12 3 -3 0 -11 -7 -18z m70 10 c-6 -8 -9 -16 -6
-19 3 -2 -2 -5 -10 -5 -13 0 -13 3 2 19 19 21 31 25 14 5z m134 3 c3 -5 1 -10
-4 -10 -6 0 -11 5 -11 10 0 6 2 10 4 10 3 0 8 -4 11 -10z m36 -7 c13 -16 12
-17 -3 -4 -10 7 -18 15 -18 17 0 8 8 3 21 -13z m324 8 c3 -5 2 -12 -3 -15 -5
-3 -9 1 -9 9 0 17 3 19 12 6z m466 -4 c-6 -8 -9 -16 -6 -19 3 -2 -2 -5 -10 -5
-13 0 -13 3 2 19 19 21 31 25 14 5z m39 3 c0 -5 -5 -10 -11 -10 -5 0 -7 5 -4
10 3 6 8 10 11 10 2 0 4 -4 4 -10z m81 -3 c-6 -8 -7 -18 -3 -22 4 -5 1 -5 -6
-1 -10 6 -10 11 -1 22 6 8 14 14 16 14 3 0 0 -6 -6 -13z m-191 -11 c0 -2 -8
-10 -17 -17 -16 -13 -17 -12 -4 4 13 16 21 21 21 13z m-1233 -21 c0 -8 -4 -15
-9 -15 -10 0 -11 14 -1 23 9 10 10 9 10 -8z m800 2 c0 -7 -9 -14 -20 -14 -19
-2 -19 -2 -1 12 11 8 19 15 20 15 0 0 1 -6 1 -13z m-1097 -1 c0 -3 -4 -8 -10
-11 -5 -3 -10 -1 -10 4 0 6 5 11 10 11 6 0 10 -2 10 -4z m394 -5 c-7 -8 -54
-9 -49 -1 2 3 15 6 29 6 14 0 23 -2 20 -5z m402 -3 c3 -4 -2 -5 -13 -4 -10 2
-25 -2 -33 -8 -13 -9 -13 -9 -2 6 12 16 35 18 48 6z m127 2 c3 -3 -12 -5 -33
-5 -21 -1 -37 2 -35 5 5 7 61 7 68 0z m67 5 c0 -2 -6 -8 -13 -14 -10 -8 -14
-7 -14 2 0 8 6 14 14 14 7 0 13 -1 13 -2z m225 -5 c-5 -8 -72 -7 -79 1 -3 2
15 5 39 5 24 0 42 -3 40 -6z m55 6 c0 -2 -8 -10 -17 -17 -16 -13 -17 -12 -4 4
13 16 21 21 21 13z m200 0 c0 -2 -8 -10 -17 -17 -16 -13 -17 -12 -4 4 13 16
21 21 21 13z m-1355 -15 c3 -5 2 -12 -3 -15 -5 -3 -9 1 -9 9 0 17 3 19 12 6z
m562 -6 c0 -8 -4 -12 -9 -9 -5 3 -6 10 -3 15 9 13 12 11 12 -6z m708 -23 c-17
-15 -18 -15 -6 0 7 9 9 23 5 30 -6 10 -4 11 7 0 11 -10 10 -15 -6 -30z m-1345
24 c0 -2 -7 -7 -16 -10 -8 -3 -12 -2 -9 4 6 10 25 14 25 6z m565 -6 c-3 -5
-12 -10 -18 -10 -7 0 -6 4 3 10 19 12 23 12 15 0z m911 -16 c1 -9 0 -13 -3
-10 -4 3 -13 0 -22 -6 -12 -10 -12 -7 2 8 9 11 15 24 12 27 -3 4 -2 5 2 2 4
-3 8 -13 9 -21z m-1103 1 c-3 -9 -8 -14 -10 -11 -3 3 -2 9 2 15 9 16 15 13 8
-4z m222 -29 c-1 -51 -11 -52 -11 -1 0 24 3 42 6 40 4 -2 6 -20 5 -39z m305
40 c0 -2 -8 -10 -17 -17 -16 -13 -17 -12 -4 4 13 16 21 21 21 13z m276 -16 c0
-12 -4 -16 -9 -11 -5 5 -6 14 -3 20 10 15 12 14 12 -9z m379 -24 c-1 -51 -11
-52 -11 -1 0 24 3 42 6 40 4 -2 6 -20 5 -39z m80 10 c0 -19 -3 -37 -6 -40 -4
-5 -4 62 0 72 4 10 7 -4 6 -32z m-1290 14 c3 -6 -1 -7 -9 -4 -18 7 -21 14 -7
14 6 0 13 -4 16 -10z m626 -13 c-10 -9 -11 -8 -5 6 3 10 9 15 12 12 3 -3 0
-11 -7 -18z m424 14 c3 -5 2 -12 -3 -15 -5 -3 -9 1 -9 9 0 17 3 19 12 6z m326
-5 c-5 -6 -7 -19 -5 -29 1 -11 0 -16 -4 -12 -12 12 -9 52 4 52 9 0 10 -5 5
-11z m50 -3 c13 -16 12 -17 -3 -4 -17 13 -22 21 -14 21 2 0 10 -8 17 -17z
m-1695 -19 c1 -9 0 -13 -4 -10 -3 4 -7 14 -8 22 -1 9 0 13 4 10 3 -4 7 -14 8
-22z m1602 1 c-3 -3 -9 2 -12 12 -6 14 -5 15 5 6 7 -7 10 -15 7 -18z m-1721 0
c0 -8 -4 -12 -9 -9 -5 3 -6 10 -3 15 9 13 12 11 12 -6z m83 7 c0 -5 -7 -9 -15
-9 -8 0 -12 4 -9 9 3 4 9 8 15 8 5 0 9 -4 9 -8z m121 -5 c-6 -8 -9 -16 -6 -18
2 -3 -11 -5 -30 -5 -18 0 -32 4 -29 8 2 4 13 5 24 3 10 -2 24 3 31 11 6 8 14
14 16 14 3 0 0 -6 -6 -13z m1710 -4 c13 -16 12 -17 -3 -4 -17 13 -22 21 -14
21 2 0 10 -8 17 -17z m-1675 -34 c2 -17 0 -28 -3 -25 -3 3 -7 19 -8 36 -1 17
0 28 3 25 3 -3 7 -19 8 -36z m1624 20 c0 -5 -4 -9 -8 -9 -5 0 -9 7 -9 15 0 8
4 12 9 9 4 -3 8 -9 8 -15z m-1510 6 c0 -2 -6 -8 -13 -14 -10 -8 -14 -7 -14 2
0 8 6 14 14 14 7 0 13 -1 13 -2z m130 -5 c0 -5 -2 -10 -4 -10 -3 0 -8 5 -11
10 -3 6 -1 10 4 10 6 0 11 -4 11 -10z m34 2 c3 -5 -1 -9 -9 -9 -8 0 -12 4 -9
9 3 4 7 8 9 8 2 0 6 -4 9 -8z m371 -2 c3 -6 -1 -7 -9 -4 -18 7 -21 14 -7 14 6
0 13 -4 16 -10z m80 -2 c3 -3 -8 -4 -25 -3 -17 1 -33 5 -36 8 -3 3 8 5 25 3
17 -1 33 -5 36 -8z m109 3 c-7 -8 -54 -9 -49 -1 2 3 15 6 29 6 14 0 23 -2 20
-5z m66 0 c0 -6 -4 -12 -8 -15 -5 -3 -9 1 -9 9 0 8 4 15 9 15 4 0 8 -4 8 -9z
m70 3 c0 -8 -19 -13 -24 -6 -3 5 1 9 9 9 8 0 15 -2 15 -3z m334 -5 c3 -2 -10
-5 -29 -5 -18 0 -32 3 -30 7 5 7 52 6 59 -2z m-1500 -21 c-3 -4 -9 -8 -15 -8
-5 0 -9 4 -9 8 0 5 7 9 15 9 8 0 12 -4 9 -9z m636 8 c0 -2 -7 -7 -16 -10 -8
-3 -12 -2 -9 4 6 10 25 14 25 6z m760 -8 c0 -4 -4 -8 -9 -8 -6 0 -12 4 -15 8
-3 5 1 9 9 9 8 0 15 -4 15 -9z m33 -13 c-7 -21 -12 -19 -10 4 0 11 5 18 9 15
4 -3 5 -11 1 -19z m171 17 c2 -4 -4 -8 -14 -8 -10 0 -16 4 -14 8 3 4 9 8 14 8
5 0 11 -4 14 -8z m-1566 -27 c-3 -3 -9 2 -12 12 -6 14 -5 15 5 6 7 -7 10 -15
7 -18z m214 13 c-14 -14 -44 -20 -36 -7 3 5 9 7 14 4 5 -3 11 -1 15 5 3 5 9
10 13 10 3 0 1 -5 -6 -12z m169 -5 c13 -16 12 -17 -3 -4 -10 7 -18 15 -18 17
0 8 8 3 21 -13z m632 2 c-3 -9 -8 -14 -10 -11 -3 3 -2 9 2 15 9 16 15 13 8 -4z
m-1102 -18 c-10 -9 -11 -8 -5 6 3 10 9 15 12 12 3 -3 0 -11 -7 -18z m160 0
c-10 -9 -11 -8 -5 6 3 10 9 15 12 12 3 -3 0 -11 -7 -18z m195 -5 c-17 -16 -18
-16 -5 5 7 12 15 20 18 17 3 -2 -3 -12 -13 -22z m151 13 c0 -8 -4 -12 -9 -9
-4 3 -8 9 -8 15 0 5 4 9 8 9 5 0 9 -7 9 -15z m453 11 c0 -2 -8 -10 -17 -17
-16 -13 -17 -12 -4 4 13 16 21 21 21 13z m115 -6 c3 -6 -1 -7 -9 -4 -18 7 -21
14 -7 14 6 0 13 -4 16 -10z m-670 -28 c-1 -9 2 -24 8 -32 9 -12 9 -13 -3 -2
-15 13 -23 65 -9 57 4 -3 6 -13 4 -23z m-191 10 c3 -5 -1 -9 -9 -9 -8 0 -15 4
-15 9 0 4 4 8 9 8 6 0 12 -4 15 -8z m360 0 c3 -5 -1 -9 -9 -9 -8 0 -15 4 -15
9 0 4 4 8 9 8 6 0 12 -4 15 -8z m33 1 c-4 -3 -1 -13 6 -22 11 -14 10 -14 -5
-2 -16 12 -16 31 -1 31 4 0 3 -3 0 -7z m199 -29 c1 -9 -1 -13 -4 -9 -4 4 -7
10 -7 13 0 4 -4 14 -9 22 -7 12 -6 13 4 3 8 -7 15 -20 16 -29z m764 32 c0 -2
-7 -7 -16 -10 -8 -3 -12 -2 -9 4 6 10 25 14 25 6z m-460 -9 c0 -2 -8 -11 -18
-20 -15 -14 -19 -15 -19 -2 0 8 4 12 8 9 4 -2 10 0 14 6 6 10 15 14 15 7z m52
-12 c2 3 5 -2 5 -10 0 -19 0 -19 -23 7 -12 14 -13 18 -3 10 9 -6 18 -10 21 -7z
m228 -6 c0 -5 -4 -9 -8 -9 -5 0 -9 7 -9 15 0 8 4 12 9 9 4 -3 8 -9 8 -15z
m-1220 1 c0 -5 -2 -10 -4 -10 -3 0 -8 5 -11 10 -3 6 -1 10 4 10 6 0 11 -4 11
-10z m335 -1 c3 -3 -7 -5 -22 -4 -16 1 -33 -2 -39 -6 -6 -5 -11 -3 -11 4 0 13
60 18 72 6z m359 -5 c3 -8 2 -12 -4 -9 -6 3 -10 10 -10 16 0 14 7 11 14 -7z
m176 12 c0 -2 -8 -10 -17 -17 -16 -13 -17 -12 -4 4 13 16 21 21 21 13z m290
-11 c0 -2 -9 -3 -19 -2 -11 0 -18 5 -15 9 4 6 34 0 34 -7z m300 6 c0 -6 -4
-12 -8 -15 -5 -3 -9 1 -9 9 0 8 4 15 9 15 4 0 8 -4 8 -9z m117 -6 c0 -8 -4
-12 -9 -9 -4 3 -8 9 -8 15 0 5 4 9 8 9 5 0 9 -7 9 -15z m99 -19 c0 -13 -5 -23
-12 -23 -9 0 -10 5 -5 11 5 6 7 19 5 29 -1 11 0 16 4 12 3 -3 7 -16 8 -29z
m-1801 3 c-3 -12 -7 -24 -10 -27 -3 -3 -3 5 -1 19 6 30 5 29 10 29 3 0 3 -10
1 -21z m90 1 c3 -6 -1 -7 -9 -4 -18 7 -21 14 -7 14 6 0 13 -4 16 -10z m205 6
c0 -2 -8 -10 -17 -17 -16 -13 -17 -12 -4 4 13 16 21 21 21 13z m1194 -8 c-3
-4 -9 -8 -15 -8 -5 0 -9 4 -9 8 0 5 7 9 15 9 8 0 12 -4 9 -9z m351 2 c3 -5 1
-10 -4 -10 -6 0 -11 5 -11 10 0 6 2 10 4 10 3 0 8 -4 11 -10z m41 -25 c-1 -8
-5 -17 -8 -21 -4 -3 -5 2 -4 13 2 10 -2 25 -8 33 -9 13 -9 13 6 2 9 -7 15 -19
14 -27z m-1359 12 c0 -7 -11 -13 -23 -13 -12 0 -20 4 -18 8 3 5 9 6 14 3 5 -3
11 -1 15 5 8 13 12 13 12 -3z m49 -6 c-11 -12 -15 -25 -11 -33 6 -10 5 -10 -5
-1 -11 10 -10 16 5 33 10 11 20 20 23 20 3 0 -3 -9 -12 -19z m971 4 c0 -8 -4
-15 -9 -15 -10 0 -11 14 -1 23 9 10 10 9 10 -8z m204 -2 c13 -16 12 -17 -3 -4
-17 13 -22 21 -14 21 2 0 10 -8 17 -17z m-1504 -8 c0 -8 -4 -12 -9 -9 -4 3 -8
9 -8 15 0 5 4 9 8 9 5 0 9 -7 9 -15z m180 -2 c0 -9 -4 -10 -14 -2 -7 6 -13 12
-13 14 0 1 6 2 13 2 8 0 14 -6 14 -14z m373 11 c0 -8 -19 -13 -24 -6 -3 5 1 9
9 9 8 0 15 -2 15 -3z m21 -17 c-10 -9 -11 -8 -5 6 3 10 9 15 12 12 3 -3 0 -11
-7 -18z m229 15 c0 -5 -7 -9 -15 -9 -8 0 -12 4 -9 9 3 4 9 8 15 8 5 0 9 -4 9
-8z m184 0 c3 -5 -1 -9 -9 -9 -8 0 -12 4 -9 9 3 4 7 8 9 8 2 0 6 -4 9 -8z
m171 -2 c3 -5 1 -10 -4 -10 -6 0 -11 5 -11 10 0 6 2 10 4 10 3 0 8 -4 11 -10z
m216 -13 c-10 -9 -11 -8 -5 6 3 10 9 15 12 12 3 -3 0 -11 -7 -18z m-1286 -7
c-3 -5 -12 -10 -18 -10 -7 0 -6 4 3 10 19 12 23 12 15 0z m31 -24 c0 -19 -3
-33 -7 -31 -7 5 -4 65 4 65 1 0 3 -15 3 -34z m929 25 c-9 -8 -36 -10 -30 -2 2
4 11 8 20 8 8 0 13 -3 10 -6z m31 -25 c0 -19 -3 -33 -7 -31 -7 5 -4 65 4 65 1
0 3 -15 3 -34z m118 18 c3 -8 2 -12 -4 -9 -6 3 -10 10 -10 16 0 14 7 11 14 -7z
m-1374 -15 c0 -5 -4 -9 -8 -9 -5 0 -9 7 -9 15 0 8 4 12 9 9 4 -3 8 -9 8 -15z
m400 0 c0 -5 -4 -9 -8 -9 -5 0 -9 7 -9 15 0 8 4 12 9 9 4 -3 8 -9 8 -15z m780
18 c0 -2 -10 -12 -22 -23 l-23 -19 19 23 c18 21 26 27 26 19z m433 -12 c-3 -9
-8 -14 -10 -11 -3 3 -2 9 2 15 9 16 15 13 8 -4z m-1553 -5 c0 -5 -5 -10 -11
-10 -5 0 -7 5 -4 10 3 6 8 10 11 10 2 0 4 -4 4 -10z m150 6 c0 -2 -8 -10 -17
-17 -16 -13 -17 -12 -4 4 13 16 21 21 21 13z m131 -9 c-6 -8 -8 -17 -4 -20 3
-4 1 -7 -5 -7 -15 0 -15 13 0 28 16 16 23 15 9 -1z m476 -4 c0 -8 -5 -9 -11
-4 -6 4 -23 7 -38 6 -15 -1 -25 1 -23 4 7 13 72 7 72 -6z m58 7 c3 -5 1 -10
-4 -10 -6 0 -11 5 -11 10 0 6 2 10 4 10 3 0 8 -4 11 -10z m465 6 c0 -3 -4 -8
-10 -11 -5 -3 -10 -1 -10 4 0 6 5 11 10 11 6 0 10 -2 10 -4z m174 -5 c-7 -8
-54 -9 -59 -2 -2 4 12 7 30 7 19 0 32 -3 29 -5z m66 -1 c0 -5 -5 -10 -11 -10
-5 0 -7 5 -4 10 3 6 8 10 11 10 2 0 4 -4 4 -10z m-1683 -15 c0 -8 -4 -12 -9
-9 -5 3 -6 10 -3 15 9 13 12 11 12 -6z m114 -22 c-12 -20 -14 -14 -5 12 4 9 9
14 11 11 3 -2 0 -13 -6 -23z m93 15 c-3 -4 -9 -8 -15 -8 -5 0 -9 4 -9 8 0 5 7
9 15 9 8 0 12 -4 9 -9z m376 6 c0 -8 -19 -13 -24 -6 -3 5 1 9 9 9 8 0 15 -2
15 -3z m145 -4 c-3 -5 -12 -10 -18 -10 -7 0 -6 4 3 10 19 12 23 12 15 0z m749
2 c3 -5 -1 -9 -9 -9 -8 0 -12 4 -9 9 3 4 7 8 9 8 2 0 6 -4 9 -8z m-261 -17
c-3 -9 -8 -14 -10 -11 -3 3 -2 9 2 15 9 16 15 13 8 -4z m403 0 c-1 -8 -5 -17
-8 -21 -5 -4 -4 16 1 34 3 9 9 -1 7 -13z m-1359 -12 c0 -9 -4 -10 -14 -2 -7 6
-13 12 -13 14 0 1 6 2 13 2 8 0 14 -6 14 -14z m34 -6 c-10 -9 -11 -8 -5 6 3
10 9 15 12 12 3 -3 0 -11 -7 -18z m214 14 c-9 -8 -36 -10 -30 -2 2 4 11 8 20
8 8 0 13 -3 10 -6z m395 0 c0 -6 -4 -12 -8 -15 -5 -3 -9 1 -9 9 0 8 4 15 9 15
4 0 8 -4 8 -9z m351 -14 c-10 -9 -11 -8 -5 6 3 10 9 15 12 12 3 -3 0 -11 -7
-18z m295 11 c3 -4 -1 -5 -10 -4 -8 1 -18 5 -22 8 -3 4 1 5 10 4 8 -1 18 -5
22 -8z m339 3 c-9 -8 -36 -10 -30 -2 2 4 11 8 20 8 8 0 13 -3 10 -6z m29 -7
c3 -8 2 -12 -4 -9 -6 3 -10 10 -10 16 0 14 7 11 14 -7z m-878 -19 c-1 -8 -5
-17 -8 -21 -5 -4 -4 16 1 34 3 9 9 -1 7 -13z m-306 -10 c-14 -17 -30 -20 -30
-4 0 5 4 8 9 4 5 -3 12 -1 16 5 3 5 9 10 12 10 3 0 0 -7 -7 -15z m480 0 c-7
-8 -17 -15 -23 -15 -6 0 -2 7 9 15 25 19 30 19 14 0z m649 2 c8 -10 7 -14 -2
-14 -8 0 -14 6 -14 14 0 7 1 13 2 13 2 0 8 -6 14 -13z m-1654 -7 c3 -6 -1 -7
-9 -4 -18 7 -21 14 -7 14 6 0 13 -4 16 -10z m30 0 c3 -5 1 -10 -4 -10 -6 0
-11 5 -11 10 0 6 2 10 4 10 3 0 8 -4 11 -10z m85 -2 c0 -4 -4 -8 -9 -8 -6 0
-12 4 -15 8 -3 5 1 9 9 9 8 0 15 -4 15 -9z m37 -5 c0 -9 -4 -10 -14 -2 -7 6
-13 12 -13 14 0 1 6 2 13 2 8 0 14 -6 14 -14z m443 5 c0 -4 -4 -8 -9 -8 -6 0
-12 4 -15 8 -3 5 1 9 9 9 8 0 15 -4 15 -9z m37 -5 c0 -9 -4 -10 -14 -2 -7 6
-13 12 -13 14 0 1 6 2 13 2 8 0 14 -6 14 -14z m443 5 c0 -4 -4 -8 -9 -8 -6 0
-12 4 -15 8 -3 5 1 9 9 9 8 0 15 -4 15 -9z m37 -5 c0 -9 -4 -10 -14 -2 -7 6
-13 12 -13 14 0 1 6 2 13 2 8 0 14 -6 14 -14z m100 2 c0 -8 -4 -12 -9 -9 -4 3
-8 9 -8 15 0 5 4 9 8 9 5 0 9 -7 9 -15z m227 7 c3 -5 -1 -9 -9 -9 -8 0 -12 4
-9 9 3 4 7 8 9 8 2 0 6 -4 9 -8z m116 -4 c0 -4 -4 -8 -9 -8 -6 0 -12 4 -15 8
-3 5 1 9 9 9 8 0 15 -4 15 -9z m37 -5 c0 -9 -4 -10 -14 -2 -7 6 -13 12 -13 14
0 1 6 2 13 2 8 0 14 -6 14 -14z m-817 -13 c0 -5 -2 -10 -4 -10 -3 0 -8 5 -11
10 -3 6 -1 10 4 10 6 0 11 -4 11 -10z"/>
</g>
</svg>
