<?xml version="1.0" encoding="UTF-8"?>
<svg xmlns="http://www.w3.org/2000/svg" xmlns:xlink="http://www.w3.org/1999/xlink" width="375pt" height="374.999991pt" viewBox="0 0 375 374.999991" version="1.2">
<defs>
<filter id="alpha" filterUnits="objectBoundingBox" x="0%" y="0%" width="100%" height="100%">
  <feColorMatrix type="matrix" in="SourceGraphic" values="0 0 0 0 1 0 0 0 0 1 0 0 0 0 1 0 0 0 1 0"/>
</filter>
<mask id="mask0">
  <g filter="url(#alpha)">
<rect x="0" y="0" width="375" height="374.999991" style="fill:rgb(0%,0%,0%);fill-opacity:0.698;stroke:none;"/>
  </g>
</mask>
<clipPath id="clip2">
  <path d="M 0.800781 0.878906 L 148.878906 0.878906 L 148.878906 32.320312 L 0.800781 32.320312 Z M 0.800781 0.878906 "/>
</clipPath>
<clipPath id="clip1">
  <rect x="0" y="0" width="149" height="33"/>
</clipPath>
<g id="surface5" clip-path="url(#clip1)">
<g clip-path="url(#clip2)" clip-rule="nonzero">
<path style=" stroke:none;fill-rule:nonzero;fill:rgb(21.958923%,61.959839%,5.099487%);fill-opacity:1;" d="M 142.582031 32.273438 L 6.828125 32.273438 C 3.585938 32.273438 0.941406 29.625 0.941406 26.375 L 0.941406 6.878906 C 0.941406 3.628906 3.585938 0.980469 6.828125 0.980469 L 142.582031 0.980469 C 145.828125 0.980469 148.46875 3.628906 148.46875 6.878906 L 148.46875 26.375 C 148.46875 29.625 145.828125 32.273438 142.582031 32.273438 Z M 142.582031 32.273438 "/>
</g>
</g>
</defs>
<g id="surface1">
<path style=" stroke:none;fill-rule:nonzero;fill:rgb(0%,0%,0%);fill-opacity:1;" d="M 254.582031 139.503906 L 118.828125 139.503906 C 115.585938 139.503906 112.941406 136.855469 112.941406 133.605469 L 112.941406 114.109375 C 112.941406 110.859375 115.585938 108.214844 118.828125 108.214844 L 254.582031 108.214844 C 257.828125 108.214844 260.46875 110.859375 260.46875 114.109375 L 260.46875 133.605469 C 260.46875 136.855469 257.828125 139.503906 254.582031 139.503906 Z M 254.582031 139.503906 "/>
<use xlink:href="#surface5" transform="matrix(1,0,0,1,112,164)" mask="url(#mask0)"/>
<path style=" stroke:none;fill-rule:nonzero;fill:rgb(0%,0%,0%);fill-opacity:1;" d="M 254.582031 253.804688 L 118.828125 253.804688 C 115.585938 253.804688 112.941406 251.160156 112.941406 247.910156 L 112.941406 228.414062 C 112.941406 225.164062 115.585938 222.515625 118.828125 222.515625 L 254.582031 222.515625 C 257.828125 222.515625 260.46875 225.164062 260.46875 228.414062 L 260.46875 247.910156 C 260.46875 251.160156 257.828125 253.804688 254.582031 253.804688 Z M 254.582031 253.804688 "/>
<path style=" stroke:none;fill-rule:nonzero;fill:rgb(21.958923%,61.959839%,5.099487%);fill-opacity:1;" d="M 233.035156 138.898438 L 196.933594 192.042969 L 201.480469 195.128906 L 250.449219 123.046875 L 245.902344 119.960938 Z M 233.035156 138.898438 "/>
<path style=" stroke:none;fill-rule:nonzero;fill:rgb(21.958923%,61.959839%,5.099487%);fill-opacity:1;" d="M 128.960938 228.40625 C 128.324219 228.40625 127.691406 228.46875 127.0625 228.59375 C 126.4375 228.71875 125.832031 228.902344 125.242188 229.148438 C 124.652344 229.390625 124.089844 229.691406 123.558594 230.046875 C 123.027344 230.402344 122.539062 230.804688 122.085938 231.253906 C 121.632812 231.707031 121.230469 232.199219 120.875 232.730469 C 120.523438 233.257812 120.222656 233.820312 119.976562 234.410156 C 119.734375 235 119.550781 235.605469 119.425781 236.234375 C 119.300781 236.859375 119.238281 237.492188 119.238281 238.128906 C 119.238281 238.769531 119.300781 239.402344 119.425781 240.027344 C 119.550781 240.652344 119.734375 241.261719 119.976562 241.851562 C 120.222656 242.441406 120.523438 243 120.875 243.53125 C 121.230469 244.0625 121.632812 244.554688 122.085938 245.003906 C 122.539062 245.457031 123.027344 245.859375 123.558594 246.214844 C 124.089844 246.570312 124.652344 246.867188 125.242188 247.113281 C 125.832031 247.355469 126.4375 247.542969 127.0625 247.667969 C 127.691406 247.789062 128.324219 247.851562 128.960938 247.851562 C 129.597656 247.851562 130.230469 247.789062 130.859375 247.667969 C 131.484375 247.542969 132.09375 247.355469 132.683594 247.113281 C 133.273438 246.867188 133.832031 246.570312 134.363281 246.214844 C 134.894531 245.859375 135.382812 245.457031 135.835938 245.003906 C 136.289062 244.554688 136.691406 244.0625 137.046875 243.53125 C 137.398438 243 137.699219 242.441406 137.945312 241.851562 C 138.1875 241.261719 138.371094 240.652344 138.496094 240.027344 C 138.621094 239.402344 138.683594 238.769531 138.683594 238.128906 C 138.683594 237.492188 138.621094 236.859375 138.496094 236.234375 C 138.371094 235.605469 138.1875 235 137.945312 234.410156 C 137.699219 233.820312 137.398438 233.257812 137.046875 232.730469 C 136.691406 232.199219 136.289062 231.707031 135.835938 231.253906 C 135.382812 230.804688 134.894531 230.402344 134.363281 230.046875 C 133.832031 229.691406 133.273438 229.390625 132.683594 229.148438 C 132.09375 228.902344 131.484375 228.71875 130.859375 228.59375 C 130.230469 228.46875 129.597656 228.40625 128.960938 228.40625 Z M 128.960938 228.40625 "/>
<path style=" stroke:none;fill-rule:nonzero;fill:rgb(21.958923%,61.959839%,5.099487%);fill-opacity:1;" d="M 251.28125 114.089844 L 235.261719 120.304688 C 234.199219 120.742188 233.660156 121.882812 234.058594 123.003906 C 234.496094 124.066406 235.636719 124.605469 236.757812 124.207031 L 246.457031 120.421875 L 234.351562 137.828125 L 237.753906 140.195312 L 249.859375 122.789062 L 249.6875 133.199219 C 249.648438 134.347656 250.605469 135.269531 251.753906 135.308594 C 252.503906 135.324219 253.085938 134.972656 253.480469 134.402344 C 253.714844 134.0625 253.839844 133.644531 253.867188 133.242188 L 254.15625 116.003906 C 254.132812 115.3125 253.820312 114.671875 253.25 114.277344 C 252.683594 113.886719 251.976562 113.8125 251.28125 114.089844 Z M 251.28125 114.089844 "/>
<path style=" stroke:none;fill-rule:nonzero;fill:rgb(21.958923%,61.959839%,5.099487%);fill-opacity:1;" d="M 158.9375 190.277344 L 125.152344 239.894531 L 129.710938 243 L 176.382812 174.453125 L 171.824219 171.351562 Z M 158.9375 190.277344 "/>
<path style=" stroke:none;fill-rule:nonzero;fill:rgb(21.958923%,61.959839%,5.099487%);fill-opacity:1;" d="M 190.375 183.914062 L 172.09375 171.410156 L 170.394531 173.894531 L 198.992188 193.449219 L 200.6875 190.964844 Z M 190.375 183.914062 "/>
</g>
</svg>
