<?xml version="1.0" encoding="UTF-8"?>
<svg xmlns="http://www.w3.org/2000/svg" xmlns:xlink="http://www.w3.org/1999/xlink" width="375pt" height="374.999991pt" viewBox="0 0 375 374.999991" version="1.2">
<defs>
<filter id="alpha" filterUnits="objectBoundingBox" x="0%" y="0%" width="100%" height="100%">
  <feColorMatrix type="matrix" in="SourceGraphic" values="0 0 0 0 1 0 0 0 0 1 0 0 0 0 1 0 0 0 1 0"/>
</filter>
<mask id="mask0">
  <g filter="url(#alpha)">
<rect x="0" y="0" width="375" height="374.999991" style="fill:rgb(0%,0%,0%);fill-opacity:0.698;stroke:none;"/>
  </g>
</mask>
<clipPath id="clip2">
  <path d="M 0.238281 0.0390625 L 148 0.0390625 L 148 31.480469 L 0.238281 31.480469 Z M 0.238281 0.0390625 "/>
</clipPath>
<clipPath id="clip1">
  <rect x="0" y="0" width="149" height="32"/>
</clipPath>
<g id="surface5" clip-path="url(#clip1)">
<g clip-path="url(#clip2)" clip-rule="nonzero">
<path style=" stroke:none;fill-rule:nonzero;fill:rgb(85.099792%,85.099792%,85.099792%);fill-opacity:1;" d="M 142.023438 31.402344 L 6.265625 31.402344 C 3.023438 31.402344 0.378906 28.753906 0.378906 25.503906 L 0.378906 6.007812 C 0.378906 2.761719 3.023438 0.113281 6.265625 0.113281 L 142.023438 0.113281 C 145.265625 0.113281 147.910156 2.761719 147.910156 6.007812 L 147.910156 25.503906 C 147.910156 28.753906 145.265625 31.402344 142.023438 31.402344 Z M 142.023438 31.402344 "/>
</g>
</g>
</defs>
<g id="surface1">
<path style=" stroke:none;fill-rule:nonzero;fill:rgb(100%,100%,100%);fill-opacity:1;" d="M 250.023438 141.632812 L 114.265625 141.632812 C 111.023438 141.632812 108.378906 138.988281 108.378906 135.738281 L 108.378906 116.242188 C 108.378906 112.992188 111.023438 110.34375 114.265625 110.34375 L 250.023438 110.34375 C 253.265625 110.34375 255.910156 112.992188 255.910156 116.242188 L 255.910156 135.738281 C 255.910156 138.988281 253.265625 141.632812 250.023438 141.632812 Z M 250.023438 141.632812 "/>
<use xlink:href="#surface5" transform="matrix(1,0,0,1,108,167)" mask="url(#mask0)"/>
<path style=" stroke:none;fill-rule:nonzero;fill:rgb(100%,100%,100%);fill-opacity:1;" d="M 250.023438 255.9375 L 114.265625 255.9375 C 111.023438 255.9375 108.378906 253.289062 108.378906 250.039062 L 108.378906 230.542969 C 108.378906 227.292969 111.023438 224.648438 114.265625 224.648438 L 250.023438 224.648438 C 253.265625 224.648438 255.910156 227.292969 255.910156 230.542969 L 255.910156 250.039062 C 255.910156 253.289062 253.265625 255.9375 250.023438 255.9375 Z M 250.023438 255.9375 "/>
<path style=" stroke:none;fill-rule:nonzero;fill:rgb(21.958923%,61.959839%,5.099487%);fill-opacity:1;" d="M 228.472656 141.03125 L 192.371094 194.171875 L 196.917969 197.257812 L 245.886719 125.175781 L 241.339844 122.089844 Z M 228.472656 141.03125 "/>
<path style=" stroke:none;fill-rule:nonzero;fill:rgb(21.958923%,61.959839%,5.099487%);fill-opacity:1;" d="M 124.398438 230.539062 C 123.761719 230.539062 123.128906 230.601562 122.503906 230.726562 C 121.875 230.847656 121.269531 231.035156 120.679688 231.277344 C 120.089844 231.523438 119.527344 231.820312 118.996094 232.175781 C 118.464844 232.53125 117.976562 232.933594 117.523438 233.386719 C 117.074219 233.835938 116.667969 234.328125 116.316406 234.859375 C 115.960938 235.390625 115.660156 235.949219 115.417969 236.539062 C 115.171875 237.128906 114.988281 237.738281 114.863281 238.363281 C 114.738281 238.988281 114.675781 239.621094 114.675781 240.261719 C 114.675781 240.898438 114.738281 241.53125 114.863281 242.15625 C 114.988281 242.785156 115.171875 243.390625 115.417969 243.980469 C 115.660156 244.570312 115.960938 245.132812 116.316406 245.664062 C 116.667969 246.191406 117.074219 246.683594 117.523438 247.136719 C 117.976562 247.585938 118.464844 247.988281 118.996094 248.34375 C 119.527344 248.699219 120.089844 249 120.679688 249.242188 C 121.269531 249.488281 121.875 249.671875 122.503906 249.796875 C 123.128906 249.921875 123.761719 249.984375 124.398438 249.984375 C 125.039062 249.984375 125.667969 249.921875 126.296875 249.796875 C 126.921875 249.671875 127.53125 249.488281 128.121094 249.242188 C 128.710938 249 129.269531 248.699219 129.800781 248.34375 C 130.332031 247.988281 130.824219 247.585938 131.273438 247.136719 C 131.726562 246.683594 132.128906 246.191406 132.484375 245.664062 C 132.839844 245.132812 133.136719 244.570312 133.382812 243.980469 C 133.625 243.390625 133.8125 242.785156 133.933594 242.15625 C 134.058594 241.53125 134.121094 240.898438 134.121094 240.261719 C 134.121094 239.621094 134.058594 238.988281 133.933594 238.363281 C 133.8125 237.738281 133.625 237.128906 133.382812 236.539062 C 133.136719 235.949219 132.839844 235.390625 132.484375 234.859375 C 132.128906 234.328125 131.726562 233.835938 131.273438 233.386719 C 130.824219 232.933594 130.332031 232.53125 129.800781 232.175781 C 129.269531 231.820312 128.710938 231.523438 128.121094 231.277344 C 127.53125 231.035156 126.921875 230.847656 126.296875 230.726562 C 125.667969 230.601562 125.039062 230.539062 124.398438 230.539062 Z M 124.398438 230.539062 "/>
<path style=" stroke:none;fill-rule:nonzero;fill:rgb(21.958923%,61.959839%,5.099487%);fill-opacity:1;" d="M 246.71875 116.21875 L 230.699219 122.433594 C 229.636719 122.875 229.097656 124.015625 229.496094 125.132812 C 229.933594 126.199219 231.074219 126.738281 232.195312 126.335938 L 241.894531 122.550781 L 229.789062 139.957031 L 233.195312 142.324219 L 245.296875 124.917969 L 245.125 135.328125 C 245.085938 136.480469 246.042969 137.398438 247.195312 137.441406 C 247.941406 137.453125 248.523438 137.101562 248.917969 136.53125 C 249.15625 136.191406 249.277344 135.773438 249.304688 135.371094 L 249.59375 118.132812 C 249.570312 117.441406 249.257812 116.804688 248.691406 116.410156 C 248.121094 116.015625 247.414062 115.945312 246.71875 116.21875 Z M 246.71875 116.21875 "/>
<path style=" stroke:none;fill-rule:nonzero;fill:rgb(21.958923%,61.959839%,5.099487%);fill-opacity:1;" d="M 154.375 192.40625 L 120.589844 242.027344 L 125.152344 245.128906 L 171.820312 176.585938 L 167.261719 173.480469 Z M 154.375 192.40625 "/>
<path style=" stroke:none;fill-rule:nonzero;fill:rgb(21.958923%,61.959839%,5.099487%);fill-opacity:1;" d="M 185.8125 186.042969 L 167.53125 173.542969 L 165.832031 176.023438 L 194.429688 195.578125 L 196.125 193.097656 Z M 185.8125 186.042969 "/>
</g>
</svg>
