<?xml version="1.0" standalone="no"?>
<!DOCTYPE svg PUBLIC "-//W3C//DTD SVG 20010904//EN"
 "http://www.w3.org/TR/2001/REC-SVG-20010904/DTD/svg10.dtd">
<svg version="1.0" xmlns="http://www.w3.org/2000/svg"
 width="639.000000pt" height="639.000000pt" viewBox="0 0 639.000000 639.000000"
 preserveAspectRatio="xMidYMid meet">
<metadata>
Created by potrace 1.11, written by Peter Selinger 2001-2013
</metadata>
<g transform="translate(0.000000,639.000000) scale(0.100000,-0.100000)"
fill="#000000" stroke="none">
<path d="M10 3190 l0 -1450 1060 0 1060 0 0 290 0 290 -770 0 -770 0 0 290 0
290 770 0 770 0 0 285 0 285 -770 0 -770 0 0 295 0 295 770 0 770 0 0 290 0
290 -1060 0 -1060 0 0 -1450z"/>
<path d="M4558 4626 c-10 -7 -18 -16 -18 -20 0 -4 -10 -17 -23 -29 -19 -19
-97 -110 -132 -155 -5 -7 -23 -26 -38 -42 -16 -17 -26 -30 -24 -30 3 0 -11
-18 -31 -39 -20 -21 -44 -47 -52 -57 -83 -103 -124 -151 -133 -159 -7 -5 -24
-26 -39 -45 -14 -19 -39 -49 -55 -66 -15 -17 -37 -42 -48 -55 -65 -80 -131
-156 -144 -170 -9 -8 -25 -28 -36 -43 -11 -15 -33 -42 -50 -60 -16 -18 -45
-51 -63 -74 -19 -22 -43 -51 -54 -64 -11 -13 -38 -45 -61 -72 -23 -27 -46 -54
-52 -60 -5 -6 -35 -41 -65 -76 -30 -36 -59 -68 -65 -72 -5 -4 -7 -8 -3 -8 4 0
-5 -13 -20 -28 -28 -30 -77 -87 -124 -144 -15 -18 -39 -46 -53 -63 -15 -16
-43 -50 -63 -75 -20 -25 -45 -54 -55 -65 -10 -11 -33 -37 -50 -59 -18 -21 -43
-50 -57 -66 -14 -15 -40 -45 -58 -68 -80 -98 -72 -112 -72 129 -1 118 0 319 0
447 l1 232 -291 0 -290 0 0 -865 0 -865 314 0 314 0 39 46 c21 26 48 56 61 67
12 11 22 27 22 34 0 7 4 13 8 13 5 0 33 30 63 66 30 37 59 72 66 79 9 10 101
117 153 179 8 9 23 25 33 34 9 9 17 21 17 26 0 5 8 16 18 25 9 9 42 45 72 81
30 36 60 70 65 76 6 6 27 30 46 54 18 23 47 56 62 73 15 18 67 79 115 137 48
57 94 112 102 121 8 9 29 32 45 51 17 19 49 57 72 84 23 27 50 59 60 71 52 62
89 107 100 118 7 7 9 15 6 19 -4 3 1 6 10 6 9 0 17 4 17 9 0 6 12 23 26 38 14
15 40 45 58 67 17 21 36 44 43 50 6 7 35 42 64 77 29 35 58 69 64 75 25 26
111 129 124 147 8 12 22 28 30 37 18 19 60 68 112 131 21 24 51 60 68 79 18
19 53 61 79 92 l47 58 768 0 767 0 0 290 0 290 -897 0 c-731 -1 -901 -3 -915
-14z"/>
<path d="M4250 2400 l0 -660 1060 0 1061 0 -1 290 -1 290 -765 0 -764 0 0 370
0 370 -295 0 -295 0 0 -660z"/>
</g>
</svg>
