<?xml version="1.0" standalone="no"?>
<!DOCTYPE svg PUBLIC "-//W3C//DTD SVG 20010904//EN"
 "http://www.w3.org/TR/2001/REC-SVG-20010904/DTD/svg10.dtd">
<svg version="1.0" xmlns="http://www.w3.org/2000/svg"
 width="462.000000pt" height="462.000000pt" viewBox="0 0 462.000000 462.000000"
 preserveAspectRatio="xMidYMid meet">
<metadata>
Created by potrace 1.11, written by Peter Selinger 2001-2013
</metadata>
<g transform="translate(0.000000,462.000000) scale(0.100000,-0.100000)"
fill="#000000" stroke="none">
<path d="M2913 3102 c-37 -55 -243 -356 -458 -670 -214 -314 -392 -572 -395
-572 -3 0 -36 138 -74 308 -38 169 -72 313 -74 320 -3 9 -48 12 -179 12 l-175
0 5 -22 c3 -13 58 -260 123 -550 l118 -528 170 0 171 1 605 885 c333 487 609
892 613 900 7 12 -23 14 -187 14 l-195 0 -68 -98z"/>
<path d="M315 2978 c-5 -14 -65 -277 -65 -284 0 -2 286 -4 635 -4 l634 0 11
43 c14 51 59 215 66 240 5 16 -30 17 -636 17 -503 0 -642 -3 -645 -12z"/>
<path d="M3598 2974 c-86 -20 -155 -60 -220 -125 -88 -88 -122 -170 -204 -499
-60 -241 -69 -286 -69 -365 1 -105 20 -153 82 -204 77 -64 87 -65 625 -69 461
-3 487 -2 492 15 3 10 19 70 36 133 17 63 33 123 36 133 5 16 -19 17 -398 17
-238 0 -418 4 -439 10 -92 26 -96 75 -30 329 58 222 81 268 149 308 l47 28
412 3 413 3 24 82 c14 45 33 112 44 150 l20 67 -481 -1 c-375 0 -495 -4 -539
-15z"/>
<path d="M153 2350 l-40 -150 642 0 643 0 11 43 c6 23 24 90 40 150 l29 107
-642 0 -643 0 -40 -150z"/>
<path d="M41 1888 c-17 -73 -34 -143 -37 -156 l-6 -22 642 2 643 3 33 135 c18
74 33 143 34 153 0 16 -37 17 -639 17 l-639 0 -31 -132z"/>
</g>
</svg>
